<mxfile host="app.diagrams.net" modified="2024-01-16T10:46:14.292Z" agent="Mozilla/5.0 (X11; Linux x86_64; rv:121.0) Gecko/20100101 Firefox/121.0" version="22.1.17" etag="LYyXrAaPLG3l21_wbusy" type="github">
  <diagram name="Page-1" id="kGjkf1yQj6F_S0dPjXBy">
    <mxGraphModel>
      <root>
        <mxCell id="0" />
        <mxCell id="1" parent="0" />
      </root>
    </mxGraphModel>
  </diagram>
</mxfile>
